<svg width="230" height="71" viewBox="0 0 230 71" fill="none" xmlns="http://www.w3.org/2000/svg">
<line x1="1" y1="-1" x2="79" y2="-1" transform="matrix(1 0 0 -1 0 35.1816)" stroke="#FFDDD2" stroke-width="2" stroke-linecap="round" stroke-dasharray="12 16"/>
<g clip-path="url(#clip0_479_1340)">
<rect x="81" y="1.18164" width="68" height="68" rx="34" stroke="#FFDDD2" stroke-width="2"/>
<rect x="85" y="5.18164" width="60" height="60" rx="30" fill="#FF5621" fill-opacity="0.05"/>
<path d="M109.337 28.6848L108.114 32.1816H121.886L120.662 28.6848C120.452 28.0848 119.884 27.6816 119.247 27.6816H110.753C110.116 27.6816 109.548 28.0848 109.337 28.6848ZM104.856 32.4066L106.506 27.6957C107.139 25.891 108.841 24.6816 110.753 24.6816H119.247C121.159 24.6816 122.861 25.891 123.494 27.6957L125.144 32.4066C126.231 32.8566 127 33.9301 127 35.1816V41.9316V44.1816C127 45.0113 126.33 45.6816 125.5 45.6816H124C123.17 45.6816 122.5 45.0113 122.5 44.1816V41.9316H107.5V44.1816C107.5 45.0113 106.83 45.6816 106 45.6816H104.5C103.67 45.6816 103 45.0113 103 44.1816V41.9316V35.1816C103 33.9301 103.769 32.8566 104.856 32.4066ZM109 36.6816C109 36.2838 108.842 35.9023 108.561 35.621C108.279 35.3397 107.898 35.1816 107.5 35.1816C107.102 35.1816 106.721 35.3397 106.439 35.621C106.158 35.9023 106 36.2838 106 36.6816C106 37.0795 106.158 37.461 106.439 37.7423C106.721 38.0236 107.102 38.1816 107.5 38.1816C107.898 38.1816 108.279 38.0236 108.561 37.7423C108.842 37.461 109 37.0795 109 36.6816ZM122.5 38.1816C122.898 38.1816 123.279 38.0236 123.561 37.7423C123.842 37.461 124 37.0795 124 36.6816C124 36.2838 123.842 35.9023 123.561 35.621C123.279 35.3397 122.898 35.1816 122.5 35.1816C122.102 35.1816 121.721 35.3397 121.439 35.621C121.158 35.9023 121 36.2838 121 36.6816C121 37.0795 121.158 37.461 121.439 37.7423C121.721 38.0236 122.102 38.1816 122.5 38.1816Z" fill="#FF5621"/>
</g>
<line x1="1" y1="-1" x2="79" y2="-1" transform="matrix(1 0 0 -1 150 35.1816)" stroke="#FFDDD2" stroke-width="2" stroke-linecap="round" stroke-dasharray="12 16"/>
<defs>
<clipPath id="clip0_479_1340">
<rect width="70" height="70" fill="white" transform="translate(80 0.181641)"/>
</clipPath>
</defs>
</svg>
